<svg xmlns="http://www.w3.org/2000/svg" viewBox="0 0 512 512" role="img" aria-label="Forensic analyst portrait">
  <defs>
    <radialGradient id="bg" cx="50%" cy="16%" r="72%">
      <stop offset="0" stop-color="#164b42"/>
      <stop offset=".58" stop-color="#071615"/>
      <stop offset="1" stop-color="#020505"/>
    </radialGradient>
    <linearGradient id="coat" x1="0" y1="0" x2="1" y2="1">
      <stop stop-color="#d7e7e7"/>
      <stop offset=".42" stop-color="#81979b"/>
      <stop offset="1" stop-color="#17232a"/>
    </linearGradient>
  </defs>
  <rect width="512" height="512" rx="96" fill="url(#bg)"/>
  <path d="M74 512c22-112 86-166 182-166s160 54 182 166z" fill="#0a1118"/>
  <path d="M158 210c0-78 40-130 98-130s98 52 98 130c0 88-42 144-98 144s-98-56-98-144z" fill="#b98e76"/>
  <path d="M156 216c24-62 58-92 100-92s76 30 100 92c-8-92-46-144-100-144s-92 52-100 144z" fill="#141217"/>
  <path d="M188 260h136" stroke="#e7f5f5" stroke-width="28" stroke-linecap="round"/>
  <path d="M200 258h42M270 258h42" stroke="#101820" stroke-width="9" stroke-linecap="round"/>
  <path d="M172 374l84 58 84-58 56 24v114H116V398z" fill="url(#coat)"/>
  <path d="M226 384h60v128h-60z" fill="#0b1219"/>
  <path d="M256 396v82M216 438h80" stroke="#4ed9a5" stroke-opacity=".75" stroke-width="10" stroke-linecap="round"/>
  <circle cx="120" cy="150" r="68" fill="#4ed9a5" opacity=".08"/>
  <rect x="28" y="28" width="456" height="456" rx="82" fill="none" stroke="#4ed9a5" stroke-opacity=".36" stroke-width="6"/>
</svg>
