<svg xmlns="http://www.w3.org/2000/svg" viewBox="0 0 512 512" role="img" aria-label="Private eye portrait">
  <defs>
    <radialGradient id="bg" cx="50%" cy="18%" r="74%">
      <stop offset="0" stop-color="#4b3a18"/>
      <stop offset=".6" stop-color="#11100a"/>
      <stop offset="1" stop-color="#030302"/>
    </radialGradient>
  </defs>
  <rect width="512" height="512" rx="96" fill="url(#bg)"/>
  <path d="M76 512c22-112 84-168 180-168s158 56 180 168z" fill="#0c0d12"/>
  <path d="M132 180h248l-44 52H176z" fill="#0a0908"/>
  <path d="M166 174c18-70 50-106 90-106s72 36 90 106z" fill="#12100c"/>
  <path d="M176 222c0-78 36-124 80-124s80 46 80 124c0 76-36 124-80 124s-80-48-80-124z" fill="#a9785f"/>
  <path d="M178 222c18-44 44-68 78-68s60 24 78 68c-6-74-34-118-78-118s-72 44-78 118z" fill="#15100c"/>
  <circle cx="226" cy="260" r="28" fill="none" stroke="#e5c579" stroke-width="9"/>
  <circle cx="286" cy="260" r="28" fill="none" stroke="#e5c579" stroke-width="9"/>
  <path d="M254 260h4" stroke="#e5c579" stroke-width="9" stroke-linecap="round"/>
  <path d="M218 332c26 12 50 12 76 0" stroke="#6a4436" stroke-width="8" stroke-linecap="round"/>
  <path d="M186 380l70 58 70-58 70 28v104H116V408z" fill="#121522"/>
  <rect x="28" y="28" width="456" height="456" rx="82" fill="none" stroke="#f0c46a" stroke-opacity=".40" stroke-width="6"/>
</svg>
