<svg xmlns="http://www.w3.org/2000/svg" viewBox="0 0 512 512" role="img" aria-label="Raincoat stranger portrait">
  <defs>
    <radialGradient id="bg" cx="50%" cy="14%" r="78%">
      <stop offset="0" stop-color="#203a4b"/>
      <stop offset=".55" stop-color="#081019"/>
      <stop offset="1" stop-color="#020407"/>
    </radialGradient>
    <linearGradient id="raincoat" x1="0" y1="0" x2="1" y2="1">
      <stop stop-color="#2b323d"/>
      <stop offset=".55" stop-color="#111721"/>
      <stop offset="1" stop-color="#05070d"/>
    </linearGradient>
  </defs>
  <rect width="512" height="512" rx="96" fill="url(#bg)"/>
  <path d="M82 512c16-126 72-204 174-204s158 78 174 204z" fill="url(#raincoat)"/>
  <path d="M138 252c14-112 58-180 118-180s104 68 118 180l-46 86H184z" fill="#0a0d14"/>
  <path d="M184 226c0-66 32-104 72-104s72 38 72 104c0 72-34 118-72 118s-72-46-72-118z" fill="#aa8069"/>
  <path d="M170 230c32-66 60-98 86-98s54 32 86 98c-10-92-42-148-86-148s-76 56-86 148z" fill="#06070c"/>
  <path d="M204 260h40M274 260h40" stroke="#16202e" stroke-width="10" stroke-linecap="round"/>
  <path d="M194 378l62 88 62-88 74 44v90H120v-90z" fill="#101723"/>
  <path d="M76 120v190M118 80v250M408 116v200M448 76v248" stroke="#8ac8ff" stroke-opacity=".18" stroke-width="5" stroke-linecap="round"/>
  <rect x="28" y="28" width="456" height="456" rx="82" fill="none" stroke="#5b8fd9" stroke-opacity=".40" stroke-width="6"/>
</svg>
